<svg xmlns="http://www.w3.org/2000/svg" width="1600" height="460" viewBox="0 0 1600 460">
<rect width="1600" height="460" rx="40" fill="#0d1628"/>
<g transform="translate(96,90) scale(0.546875)">
<rect width="512" height="512" rx="104" fill="#101b31" stroke="#26324f" stroke-width="4"/>
<path d="M256 92 L420 222 L420 408 L92 408 L92 222 Z" fill="#2c3368" stroke="#2c3368" stroke-width="36" stroke-linejoin="round"/>
<rect x="128" y="238" width="118" height="70" rx="18" fill="#4a86ff" />
<rect x="266" y="238" width="118" height="70" rx="18" fill="#1fc6c4" />
<rect x="128" y="328" width="118" height="70" rx="18" fill="#8f7ef7" />
<rect x="266" y="328" width="118" height="70" rx="18" fill="#4a86ff" />
<rect x="219" y="168" width="18" height="44" rx="9" fill="#4a86ff" />
<rect x="247" y="152" width="18" height="60" rx="9" fill="#1fc6c4" />
<rect x="275" y="176" width="18" height="36" rx="9" fill="#8f7ef7" />
</g>
<text x="440" y="205" font-family="Avenir Next" font-size="100" font-weight="800" fill="#e8ecf6" text-anchor="start">Alexa Organizer</text>
<text x="444" y="280" font-family="Avenir Next" font-size="48" font-weight="600" fill="#1fc6c4" text-anchor="start">Your house, in Alexa.</text>
<text x="446" y="346" font-family="Avenir Next" font-size="29" font-weight="500" fill="#8a93b0" text-anchor="start">Review the plan. Tap Sync. Alexa matches Home Assistant.</text>
</svg>